2.6Hz3min_grf.mot
version=1
nRows=20
nColumns 19
inDegrees=yes
endheader
time	1_ground_force_vx	1_ground_force_vy	1_ground_force_vz	1_ground_force_px	1_ground_force_py	1_ground_force_pz	1_ground_torque_x	1_ground_torque_y	1_ground_torque_z	2_ground_force_vx	2_ground_force_vy	2_ground_force_vz	2_ground_force_px	2_ground_force_py	2_ground_force_pz	2_ground_torque_x	2_ground_torque_y	2_ground_torque_z
            0.005000	           -0.048887	            9.195900	           -0.510736	           -0.233013	            0.005581	           -0.255695	            0.393009	           -0.609867	           -0.043468	           -0.006893	            1.843492	           -0.556567	           -0.271675	            0.005507	           -0.698808	           -0.337320	           -0.273937	           -0.396689
            0.005500	            0.088755	            9.195730	           -0.465222	           -0.233013	            0.005581	           -0.255695	            0.390866	           -0.526289	           -0.112433	           -0.011463	            3.131860	           -0.364255	           -0.271675	            0.005507	           -0.698808	           -0.374815	           -0.293046	           -0.377890
            0.006000	            0.271720	            9.556886	           -0.601698	           -0.233013	            0.005581	           -0.255695	            0.283917	           -0.433877	           -0.085167	           -0.199548	            3.315500	           -0.410446	           -0.271675	            0.005507	           -0.698808	           -0.393592	           -0.293181	           -0.359032
            0.006500	           -0.323328	            9.555198	           -0.233372	           -0.233013	            0.005581	           -0.255695	            0.474983	           -0.425341	            0.001772	           -0.150951	            2.765232	           -0.975574	           -0.271675	            0.005507	           -0.698808	           -0.337039	           -0.349626	           -0.378108
            0.007000	           -0.688313	            8.651047	            0.405656	           -0.233013	            0.005581	           -0.255695	            0.391602	           -0.434344	           -0.107656	           -0.385241	            2.764721	           -1.069331	           -0.271675	            0.005507	           -0.698808	           -0.393335	           -0.368668	           -0.397002
            0.007500	           -0.412231	            8.649330	            0.817677	           -0.233013	            0.005581	           -0.255695	            0.392876	           -0.563691	           -0.077687	            0.034414	            3.318689	           -1.067539	           -0.271675	            0.005507	           -0.698808	           -0.468460	           -0.369074	           -0.359270
            0.008000	           -0.504651	            9.551624	            0.592490	           -0.233013	            0.005581	           -0.255695	            0.401838	           -0.609553	           -0.175838	            0.266025	            4.055960	           -1.018083	           -0.271675	            0.005507	           -0.698808	           -0.393428	           -0.349561	           -0.453485
            0.008500	           -0.277078	            9.194086	           -0.097464	           -0.233013	            0.005581	           -0.255695	            0.394383	           -0.554900	            0.040981	            0.034517	            3.317852	           -0.832899	           -0.271675	            0.005507	           -0.698808	           -0.449777	           -0.340648	           -0.359176
            0.009000	            0.179270	            9.377979	           -0.923235	           -0.233013	            0.005581	           -0.255695	            0.391771	           -0.508179	           -0.014464	            0.455624	            3.502518	           -0.550852	           -0.271675	            0.005507	           -0.698808	           -0.431172	           -0.284065	           -0.302431
            0.009500	           -0.003859	            9.918151	           -0.782893	           -0.233013	            0.005581	           -0.255695	            0.423017	           -0.406495	           -0.040742	           -0.105225	            3.132024	           -0.504999	           -0.271675	            0.005507	           -0.698808	           -0.487330	           -0.350102	           -0.396895
            0.010000	            0.088168	            9.917579	           -0.645553	           -0.233013	            0.005581	           -0.255695	            0.398332	           -0.350911	           -0.055331	            0.082278	            3.131864	           -0.270438	           -0.271675	            0.005507	           -0.698808	           -0.355756	           -0.368599	           -0.378168
            0.010500	           -0.460075	            9.013195	            0.039786	           -0.233013	            0.005581	           -0.255695	            0.313131	           -0.443429	           -0.116537	           -0.012977	            3.501663	           -0.785294	           -0.271675	            0.005507	           -0.698808	           -0.430981	           -0.359015	           -0.491203
            0.011000	           -0.688136	            9.551785	            0.547089	           -0.233013	            0.005581	           -0.255695	            0.404006	           -0.600798	           -0.089634	           -0.246000	            3.133358	           -1.021149	           -0.271675	            0.005507	           -0.698808	           -0.412096	           -0.368937	           -0.340443
            0.011500	           -0.596514	            8.650868	            0.451285	           -0.233013	            0.005581	           -0.255695	            0.408592	           -0.563946	           -0.047950	            0.035661	            2.951061	           -1.256566	           -0.271675	            0.005507	           -0.698808	           -0.468444	           -0.369208	           -0.321569
            0.012000	           -0.138770	            9.913602	            0.272134	           -0.233013	            0.005581	           -0.255695	            0.434234	           -0.554171	           -0.103661	           -0.012559	            3.319524	           -1.349088	           -0.271675	            0.005507	           -0.698808	           -0.468656	           -0.321608	           -0.415652
            0.012500	            0.089552	            9.194353	           -0.144230	           -0.233013	            0.005581	           -0.255695	            0.320803	           -0.452264	           -0.130740	            0.177060	            2.765914	           -0.834930	           -0.271675	            0.005507	           -0.698808	           -0.431186	           -0.302298	           -0.491001
            0.013000	            0.133166	            9.558629	           -1.014060	           -0.233013	            0.005581	           -0.255695	            0.395217	           -0.415205	           -0.147622	           -0.012272	            3.317180	           -0.692094	           -0.271675	            0.005507	           -0.698808	           -0.393616	           -0.292979	           -0.415582
            0.013500	            0.133915	            9.196918	           -0.740471	           -0.233013	            0.005581	           -0.255695	            0.421503	           -0.461810	           -0.053884	            0.223307	            2.949730	           -0.693508	           -0.271675	            0.005507	           -0.698808	           -0.412359	           -0.302567	           -0.396758
            0.014000	            0.089094	           10.456606	           -0.230531	           -0.239407	            0.005746	           -0.294277	           -0.004208	           -0.493879	            0.010888	           -0.105266	            3.132359	           -0.598855	           -0.271675	            0.005507	           -0.698808	           -0.337107	           -0.330721	           -0.378041
            0.014500	           -0.460273	           10.094789	            0.044424	           -0.240664	            0.005741	           -0.293162	            0.028191	           -0.618295	           -0.002721	            0.081325	            3.318356	           -0.926775	           -0.271675	            0.005507	           -0.698808	           -0.412257	           -0.330925	           -0.396859
